<svg xmlns="http://www.w3.org/2000/svg" viewBox="0 0 1200 600" preserveAspectRatio="xMidYMid slice">
  <defs>
    <linearGradient id="overlay" x1="0" y1="0" x2="0" y2="1">
      <stop offset="0%" stop-color="#0f172a" stop-opacity="0.3"/>
      <stop offset="100%" stop-color="#0f172a" stop-opacity="0.7"/>
    </linearGradient>
  </defs>
  <rect width="1200" height="600" fill="#0f172a"/>
  <polygon points="13.274687483178639,10.658095626447064 102.99330087639775,19.112787610851605 17.920493932963844,72.52810022913113" fill="#1e3a8a" opacity="0.85"/><polygon points="102.99330087639775,19.112787610851605 120.68757641655213,83.25649942364416 17.920493932963844,72.52810022913113" fill="#172554" opacity="0.85"/><polygon points="102.99330087639775,19.112787610851605 226.82882484626134,0 120.68757641655213,83.25649942364416" fill="#1e3a8a" opacity="0.85"/><polygon points="226.82882484626134,0 211.94411334007532,51.70603241430065 120.68757641655213,83.25649942364416" fill="#1e3a8a" opacity="0.85"/><polygon points="226.82882484626134,0 318.58571474107714,18.211594255170155 211.94411334007532,51.70603241430065" fill="#1d4ed8" opacity="0.85"/><polygon points="318.58571474107714,18.211594255170155 280.629176986537,72.74306450595294 211.94411334007532,51.70603241430065" fill="#1e3a8a" opacity="0.85"/><polygon points="318.58571474107714,18.211594255170155 401.9253800538718,19.449277665212534 280.629176986537,72.74306450595294" fill="#1e40af" opacity="0.85"/><polygon points="401.9253800538718,19.449277665212534 391.8372177451571,53.05609893030067 280.629176986537,72.74306450595294" fill="#3b82f6" opacity="0.85"/><polygon points="401.9253800538718,19.449277665212534 529.9569612829057,11.099168484021732 391.8372177451571,53.05609893030067" fill="#3b82f6" opacity="0.85"/><polygon points="529.9569612829057,11.099168484021732 519.9999118059277,59.164750898975846 391.8372177451571,53.05609893030067" fill="#2563eb" opacity="0.85"/><polygon points="529.9569612829057,11.099168484021732 619.7451127952145,0 519.9999118059277,59.164750898975846" fill="#1e3a8a" opacity="0.85"/><polygon points="619.7451127952145,0 625.6769207241215,78.96737869854255 519.9999118059277,59.164750898975846" fill="#3b82f6" opacity="0.85"/><polygon points="619.7451127952145,0 678.9956251956602,0 625.6769207241215,78.96737869854255" fill="#1e3a8a" opacity="0.85"/><polygon points="678.9956251956602,0 697.8405119622128,67.136968185914 625.6769207241215,78.96737869854255" fill="#2563eb" opacity="0.85"/><polygon points="678.9956251956602,0 820.6064140631394,26.710352744845544 697.8405119622128,67.136968185914" fill="#3b82f6" opacity="0.85"/><polygon points="820.6064140631394,26.710352744845544 824.8858534492281,82.7428633678665 697.8405119622128,67.136968185914" fill="#2563eb" opacity="0.85"/><polygon points="820.6064140631394,26.710352744845544 899.2720645320722,0 824.8858534492281,82.7428633678665" fill="#172554" opacity="0.85"/><polygon points="899.2720645320722,0 881.9891106285602,58.877021619670316 824.8858534492281,82.7428633678665" fill="#172554" opacity="0.85"/><polygon points="899.2720645320722,0 996.518512259208,0 881.9891106285602,58.877021619670316" fill="#172554" opacity="0.85"/><polygon points="996.518512259208,0 1002.4915305146047,64.2896203018133 881.9891106285602,58.877021619670316" fill="#172554" opacity="0.85"/><polygon points="996.518512259208,0 1075.3690518922217,0 1002.4915305146047,64.2896203018133" fill="#1d4ed8" opacity="0.85"/><polygon points="1075.3690518922217,0 1108.8545486405321,65.56678163111293 1002.4915305146047,64.2896203018133" fill="#3b82f6" opacity="0.85"/><polygon points="1075.3690518922217,0 1200,20.20587030254667 1108.8545486405321,65.56678163111293" fill="#2563eb" opacity="0.85"/><polygon points="1200,20.20587030254667 1179.0899289985248,58.63989181536127 1108.8545486405321,65.56678163111293" fill="#172554" opacity="0.85"/><polygon points="17.920493932963844,72.52810022913113 120.68757641655213,83.25649942364416 0,162.22135930950097" fill="#2563eb" opacity="0.85"/><polygon points="120.68757641655213,83.25649942364416 92.51556864366671,173.26445707625888 0,162.22135930950097" fill="#1e3a8a" opacity="0.85"/><polygon points="120.68757641655213,83.25649942364416 211.94411334007532,51.70603241430065 92.51556864366671,173.26445707625888" fill="#1d4ed8" opacity="0.85"/><polygon points="211.94411334007532,51.70603241430065 215.4504601408011,120.41577722351983 92.51556864366671,173.26445707625888" fill="#3b82f6" opacity="0.85"/><polygon points="211.94411334007532,51.70603241430065 280.629176986537,72.74306450595294 215.4504601408011,120.41577722351983" fill="#3b82f6" opacity="0.85"/><polygon points="280.629176986537,72.74306450595294 272.6460394222337,176.34544038252886 215.4504601408011,120.41577722351983" fill="#3b82f6" opacity="0.85"/><polygon points="280.629176986537,72.74306450595294 391.8372177451571,53.05609893030067 272.6460394222337,176.34544038252886" fill="#172554" opacity="0.85"/><polygon points="391.8372177451571,53.05609893030067 417.19111463014747,122.4903704531934 272.6460394222337,176.34544038252886" fill="#3b82f6" opacity="0.85"/><polygon points="391.8372177451571,53.05609893030067 519.9999118059277,59.164750898975846 417.19111463014747,122.4903704531934" fill="#1d4ed8" opacity="0.85"/><polygon points="519.9999118059277,59.164750898975846 527.3061582693839,146.3913866304083 417.19111463014747,122.4903704531934" fill="#1e40af" opacity="0.85"/><polygon points="519.9999118059277,59.164750898975846 625.6769207241215,78.96737869854255 527.3061582693839,146.3913866304083" fill="#3b82f6" opacity="0.85"/><polygon points="625.6769207241215,78.96737869854255 595.6155161703379,139.6479539428179 527.3061582693839,146.3913866304083" fill="#1d4ed8" opacity="0.85"/><polygon points="625.6769207241215,78.96737869854255 697.8405119622128,67.136968185914 595.6155161703379,139.6479539428179" fill="#1e3a8a" opacity="0.85"/><polygon points="697.8405119622128,67.136968185914 681.7850562047058,144.63570069816114 595.6155161703379,139.6479539428179" fill="#172554" opacity="0.85"/><polygon points="697.8405119622128,67.136968185914 824.8858534492281,82.7428633678665 681.7850562047058,144.63570069816114" fill="#2563eb" opacity="0.85"/><polygon points="824.8858534492281,82.7428633678665 829.881224827013,167.9794027117739 681.7850562047058,144.63570069816114" fill="#1e40af" opacity="0.85"/><polygon points="824.8858534492281,82.7428633678665 881.9891106285602,58.877021619670316 829.881224827013,167.9794027117739" fill="#1e40af" opacity="0.85"/><polygon points="881.9891106285602,58.877021619670316 874.9614675762396,124.88994293038957 829.881224827013,167.9794027117739" fill="#1d4ed8" opacity="0.85"/><polygon points="881.9891106285602,58.877021619670316 1002.4915305146047,64.2896203018133 874.9614675762396,124.88994293038957" fill="#2563eb" opacity="0.85"/><polygon points="1002.4915305146047,64.2896203018133 1004.8446067361161,135.73098534711292 874.9614675762396,124.88994293038957" fill="#1d4ed8" opacity="0.85"/><polygon points="1002.4915305146047,64.2896203018133 1108.8545486405321,65.56678163111293 1004.8446067361161,135.73098534711292" fill="#172554" opacity="0.85"/><polygon points="1108.8545486405321,65.56678163111293 1104.134867840177,172.37479263740263 1004.8446067361161,135.73098534711292" fill="#1d4ed8" opacity="0.85"/><polygon points="1108.8545486405321,65.56678163111293 1179.0899289985248,58.63989181536127 1104.134867840177,172.37479263740263" fill="#1e3a8a" opacity="0.85"/><polygon points="1179.0899289985248,58.63989181536127 1200,129.36155442556245 1104.134867840177,172.37479263740263" fill="#1e3a8a" opacity="0.85"/><polygon points="0,162.22135930950097 92.51556864366671,173.26445707625888 29.889858533051374,201.4360620137239" fill="#172554" opacity="0.85"/><polygon points="92.51556864366671,173.26445707625888 119.2713086916653,242.11115843852951 29.889858533051374,201.4360620137239" fill="#1d4ed8" opacity="0.85"/><polygon points="92.51556864366671,173.26445707625888 215.4504601408011,120.41577722351983 119.2713086916653,242.11115843852951" fill="#3b82f6" opacity="0.85"/><polygon points="215.4504601408011,120.41577722351983 203.2688080896197,196.65019501310263 119.2713086916653,242.11115843852951" fill="#1d4ed8" opacity="0.85"/><polygon points="215.4504601408011,120.41577722351983 272.6460394222337,176.34544038252886 203.2688080896197,196.65019501310263" fill="#2563eb" opacity="0.85"/><polygon points="272.6460394222337,176.34544038252886 328.9831687920199,196.4806709066567 203.2688080896197,196.65019501310263" fill="#1e40af" opacity="0.85"/><polygon points="272.6460394222337,176.34544038252886 417.19111463014747,122.4903704531934 328.9831687920199,196.4806709066567" fill="#172554" opacity="0.85"/><polygon points="417.19111463014747,122.4903704531934 405.05861522644864,240.02755748761982 328.9831687920199,196.4806709066567" fill="#1d4ed8" opacity="0.85"/><polygon points="417.19111463014747,122.4903704531934 527.3061582693839,146.3913866304083 405.05861522644864,240.02755748761982" fill="#2563eb" opacity="0.85"/><polygon points="527.3061582693839,146.3913866304083 477.39597482863235,220.0587496740165 405.05861522644864,240.02755748761982" fill="#172554" opacity="0.85"/><polygon points="527.3061582693839,146.3913866304083 595.6155161703379,139.6479539428179 477.39597482863235,220.0587496740165" fill="#1e3a8a" opacity="0.85"/><polygon points="595.6155161703379,139.6479539428179 626.9756913522665,247.6643804834697 477.39597482863235,220.0587496740165" fill="#1e40af" opacity="0.85"/><polygon points="595.6155161703379,139.6479539428179 681.7850562047058,144.63570069816114 626.9756913522665,247.6643804834697" fill="#3b82f6" opacity="0.85"/><polygon points="681.7850562047058,144.63570069816114 713.0575692298298,248.13301982465705 626.9756913522665,247.6643804834697" fill="#1d4ed8" opacity="0.85"/><polygon points="681.7850562047058,144.63570069816114 829.881224827013,167.9794027117739 713.0575692298298,248.13301982465705" fill="#1d4ed8" opacity="0.85"/><polygon points="829.881224827013,167.9794027117739 792.5921122720474,222.0620117492106 713.0575692298298,248.13301982465705" fill="#1e3a8a" opacity="0.85"/><polygon points="829.881224827013,167.9794027117739 874.9614675762396,124.88994293038957 792.5921122720474,222.0620117492106" fill="#2563eb" opacity="0.85"/><polygon points="874.9614675762396,124.88994293038957 886.3751132104171,197.36535170682956 792.5921122720474,222.0620117492106" fill="#1e40af" opacity="0.85"/><polygon points="874.9614675762396,124.88994293038957 1004.8446067361161,135.73098534711292 886.3751132104171,197.36535170682956" fill="#2563eb" opacity="0.85"/><polygon points="1004.8446067361161,135.73098534711292 998.3189398647609,224.42144903203348 886.3751132104171,197.36535170682956" fill="#1e3a8a" opacity="0.85"/><polygon points="1004.8446067361161,135.73098534711292 1104.134867840177,172.37479263740263 998.3189398647609,224.42144903203348" fill="#1e40af" opacity="0.85"/><polygon points="1104.134867840177,172.37479263740263 1097.4684466395656,233.21088978706473 998.3189398647609,224.42144903203348" fill="#1e3a8a" opacity="0.85"/><polygon points="1104.134867840177,172.37479263740263 1200,129.36155442556245 1097.4684466395656,233.21088978706473" fill="#2563eb" opacity="0.85"/><polygon points="1200,129.36155442556245 1179.7162990958395,208.34863046386585 1097.4684466395656,233.21088978706473" fill="#2563eb" opacity="0.85"/><polygon points="29.889858533051374,201.4360620137239 119.2713086916653,242.11115843852951 20.956906418150034,315.15963661426497" fill="#3b82f6" opacity="0.85"/><polygon points="119.2713086916653,242.11115843852951 124.8623754882552,307.97752079731396 20.956906418150034,315.15963661426497" fill="#2563eb" opacity="0.85"/><polygon points="119.2713086916653,242.11115843852951 203.2688080896197,196.65019501310263 124.8623754882552,307.97752079731396" fill="#172554" opacity="0.85"/><polygon points="203.2688080896197,196.65019501310263 177.9785871200042,290.2261857160999 124.8623754882552,307.97752079731396" fill="#1e40af" opacity="0.85"/><polygon points="203.2688080896197,196.65019501310263 328.9831687920199,196.4806709066567 177.9785871200042,290.2261857160999" fill="#172554" opacity="0.85"/><polygon points="328.9831687920199,196.4806709066567 290.16026233994455,329.87639343749686 177.9785871200042,290.2261857160999" fill="#2563eb" opacity="0.85"/><polygon points="328.9831687920199,196.4806709066567 405.05861522644864,240.02755748761982 290.16026233994455,329.87639343749686" fill="#1d4ed8" opacity="0.85"/><polygon points="405.05861522644864,240.02755748761982 373.9968013531594,325.9329546242481 290.16026233994455,329.87639343749686" fill="#3b82f6" opacity="0.85"/><polygon points="405.05861522644864,240.02755748761982 477.39597482863235,220.0587496740165 373.9968013531594,325.9329546242481" fill="#1e3a8a" opacity="0.85"/><polygon points="477.39597482863235,220.0587496740165 520.6597989186898,304.0163655254546 373.9968013531594,325.9329546242481" fill="#1d4ed8" opacity="0.85"/><polygon points="477.39597482863235,220.0587496740165 626.9756913522665,247.6643804834697 520.6597989186898,304.0163655254546" fill="#1d4ed8" opacity="0.85"/><polygon points="626.9756913522665,247.6643804834697 597.0680919740284,317.91302523086955 520.6597989186898,304.0163655254546" fill="#1d4ed8" opacity="0.85"/><polygon points="626.9756913522665,247.6643804834697 713.0575692298298,248.13301982465705 597.0680919740284,317.91302523086955" fill="#1e3a8a" opacity="0.85"/><polygon points="713.0575692298298,248.13301982465705 719.1734298300024,281.15420934104486 597.0680919740284,317.91302523086955" fill="#1d4ed8" opacity="0.85"/><polygon points="713.0575692298298,248.13301982465705 792.5921122720474,222.0620117492106 719.1734298300024,281.15420934104486" fill="#3b82f6" opacity="0.85"/><polygon points="792.5921122720474,222.0620117492106 829.9829661771388,285.40609356786695 719.1734298300024,281.15420934104486" fill="#2563eb" opacity="0.85"/><polygon points="792.5921122720474,222.0620117492106 886.3751132104171,197.36535170682956 829.9829661771388,285.40609356786695" fill="#1e3a8a" opacity="0.85"/><polygon points="886.3751132104171,197.36535170682956 881.1424059561332,271.10097791563436 829.9829661771388,285.40609356786695" fill="#1d4ed8" opacity="0.85"/><polygon points="886.3751132104171,197.36535170682956 998.3189398647609,224.42144903203348 881.1424059561332,271.10097791563436" fill="#1e3a8a" opacity="0.85"/><polygon points="998.3189398647609,224.42144903203348 1020.5909607439605,290.12287375446493 881.1424059561332,271.10097791563436" fill="#2563eb" opacity="0.85"/><polygon points="998.3189398647609,224.42144903203348 1097.4684466395656,233.21088978706473 1020.5909607439605,290.12287375446493" fill="#2563eb" opacity="0.85"/><polygon points="1097.4684466395656,233.21088978706473 1087.4163235135693,305.31545801130636 1020.5909607439605,290.12287375446493" fill="#3b82f6" opacity="0.85"/><polygon points="1097.4684466395656,233.21088978706473 1179.7162990958395,208.34863046386585 1087.4163235135693,305.31545801130636" fill="#1e40af" opacity="0.85"/><polygon points="1179.7162990958395,208.34863046386585 1200,274.2196335586964 1087.4163235135693,305.31545801130636" fill="#2563eb" opacity="0.85"/><polygon points="20.956906418150034,315.15963661426497 124.8623754882552,307.97752079731396 0,388.5642265966605" fill="#1e3a8a" opacity="0.85"/><polygon points="124.8623754882552,307.97752079731396 96.647955926758,400.41183044591395 0,388.5642265966605" fill="#172554" opacity="0.85"/><polygon points="124.8623754882552,307.97752079731396 177.9785871200042,290.2261857160999 96.647955926758,400.41183044591395" fill="#1e40af" opacity="0.85"/><polygon points="177.9785871200042,290.2261857160999 190.55662882994898,374.25896291221443 96.647955926758,400.41183044591395" fill="#1e3a8a" opacity="0.85"/><polygon points="177.9785871200042,290.2261857160999 290.16026233994455,329.87639343749686 190.55662882994898,374.25896291221443" fill="#1e3a8a" opacity="0.85"/><polygon points="290.16026233994455,329.87639343749686 271.7507307758816,378.23473186794547 190.55662882994898,374.25896291221443" fill="#172554" opacity="0.85"/><polygon points="290.16026233994455,329.87639343749686 373.9968013531594,325.9329546242481 271.7507307758816,378.23473186794547" fill="#1e40af" opacity="0.85"/><polygon points="373.9968013531594,325.9329546242481 377.36579993774893,386.52403837576765 271.7507307758816,378.23473186794547" fill="#2563eb" opacity="0.85"/><polygon points="373.9968013531594,325.9329546242481 520.6597989186898,304.0163655254546 377.36579993774893,386.52403837576765" fill="#172554" opacity="0.85"/><polygon points="520.6597989186898,304.0163655254546 523.3927242969291,361.40345891276314 377.36579993774893,386.52403837576765" fill="#172554" opacity="0.85"/><polygon points="520.6597989186898,304.0163655254546 597.0680919740284,317.91302523086955 523.3927242969291,361.40345891276314" fill="#2563eb" opacity="0.85"/><polygon points="597.0680919740284,317.91302523086955 583.4539378103605,368.08091382143505 523.3927242969291,361.40345891276314" fill="#2563eb" opacity="0.85"/><polygon points="597.0680919740284,317.91302523086955 719.1734298300024,281.15420934104486 583.4539378103605,368.08091382143505" fill="#1d4ed8" opacity="0.85"/><polygon points="719.1734298300024,281.15420934104486 698.5424450880726,389.71607730674447 583.4539378103605,368.08091382143505" fill="#1e3a8a" opacity="0.85"/><polygon points="719.1734298300024,281.15420934104486 829.9829661771388,285.40609356786695 698.5424450880726,389.71607730674447" fill="#3b82f6" opacity="0.85"/><polygon points="829.9829661771388,285.40609356786695 779.9010909575937,387.5844680821191 698.5424450880726,389.71607730674447" fill="#1e40af" opacity="0.85"/><polygon points="829.9829661771388,285.40609356786695 881.1424059561332,271.10097791563436 779.9010909575937,387.5844680821191" fill="#1e3a8a" opacity="0.85"/><polygon points="881.1424059561332,271.10097791563436 873.327074847033,362.663706259157 779.9010909575937,387.5844680821191" fill="#2563eb" opacity="0.85"/><polygon points="881.1424059561332,271.10097791563436 1020.5909607439605,290.12287375446493 873.327074847033,362.663706259157" fill="#1e3a8a" opacity="0.85"/><polygon points="1020.5909607439605,290.12287375446493 988.1138125599226,396.0593193673054 873.327074847033,362.663706259157" fill="#1e40af" opacity="0.85"/><polygon points="1020.5909607439605,290.12287375446493 1087.4163235135693,305.31545801130636 988.1138125599226,396.0593193673054" fill="#1d4ed8" opacity="0.85"/><polygon points="1087.4163235135693,305.31545801130636 1119.4706566605753,393.89361159841854 988.1138125599226,396.0593193673054" fill="#1d4ed8" opacity="0.85"/><polygon points="1087.4163235135693,305.31545801130636 1200,274.2196335586964 1119.4706566605753,393.89361159841854" fill="#1e40af" opacity="0.85"/><polygon points="1200,274.2196335586964 1200,394.09609328899097 1119.4706566605753,393.89361159841854" fill="#2563eb" opacity="0.85"/><polygon points="0,388.5642265966605 96.647955926758,400.41183044591395 0,472.7114108686893" fill="#1e40af" opacity="0.85"/><polygon points="96.647955926758,400.41183044591395 125.5906085273912,461.0091481803302 0,472.7114108686893" fill="#172554" opacity="0.85"/><polygon points="96.647955926758,400.41183044591395 190.55662882994898,374.25896291221443 125.5906085273912,461.0091481803302" fill="#2563eb" opacity="0.85"/><polygon points="190.55662882994898,374.25896291221443 189.1978927241179,442.44582176079285 125.5906085273912,461.0091481803302" fill="#2563eb" opacity="0.85"/><polygon points="190.55662882994898,374.25896291221443 271.7507307758816,378.23473186794547 189.1978927241179,442.44582176079285" fill="#1d4ed8" opacity="0.85"/><polygon points="271.7507307758816,378.23473186794547 294.84182692767547,428.0346536927987 189.1978927241179,442.44582176079285" fill="#172554" opacity="0.85"/><polygon points="271.7507307758816,378.23473186794547 377.36579993774893,386.52403837576765 294.84182692767547,428.0346536927987" fill="#2563eb" opacity="0.85"/><polygon points="377.36579993774893,386.52403837576765 423.31681534033396,451.68180435043234 294.84182692767547,428.0346536927987" fill="#172554" opacity="0.85"/><polygon points="377.36579993774893,386.52403837576765 523.3927242969291,361.40345891276314 423.31681534033396,451.68180435043234" fill="#1d4ed8" opacity="0.85"/><polygon points="523.3927242969291,361.40345891276314 502.1314941485069,453.0930142059034 423.31681534033396,451.68180435043234" fill="#1e3a8a" opacity="0.85"/><polygon points="523.3927242969291,361.40345891276314 583.4539378103605,368.08091382143505 502.1314941485069,453.0930142059034" fill="#3b82f6" opacity="0.85"/><polygon points="583.4539378103605,368.08091382143505 602.0803587250734,447.3957863107467 502.1314941485069,453.0930142059034" fill="#1d4ed8" opacity="0.85"/><polygon points="583.4539378103605,368.08091382143505 698.5424450880726,389.71607730674447 602.0803587250734,447.3957863107467" fill="#2563eb" opacity="0.85"/><polygon points="698.5424450880726,389.71607730674447 678.7447911353833,476.30750208413303 602.0803587250734,447.3957863107467" fill="#2563eb" opacity="0.85"/><polygon points="698.5424450880726,389.71607730674447 779.9010909575937,387.5844680821191 678.7447911353833,476.30750208413303" fill="#172554" opacity="0.85"/><polygon points="779.9010909575937,387.5844680821191 793.2999322675771,465.8500127753535 678.7447911353833,476.30750208413303" fill="#2563eb" opacity="0.85"/><polygon points="779.9010909575937,387.5844680821191 873.327074847033,362.663706259157 793.2999322675771,465.8500127753535" fill="#1e40af" opacity="0.85"/><polygon points="873.327074847033,362.663706259157 889.6956287959597,422.99285809767184 793.2999322675771,465.8500127753535" fill="#1e40af" opacity="0.85"/><polygon points="873.327074847033,362.663706259157 988.1138125599226,396.0593193673054 889.6956287959597,422.99285809767184" fill="#3b82f6" opacity="0.85"/><polygon points="988.1138125599226,396.0593193673054 990.5799080421442,440.8503787804584 889.6956287959597,422.99285809767184" fill="#2563eb" opacity="0.85"/><polygon points="988.1138125599226,396.0593193673054 1119.4706566605753,393.89361159841854 990.5799080421442,440.8503787804584" fill="#1e3a8a" opacity="0.85"/><polygon points="1119.4706566605753,393.89361159841854 1087.2737932083485,452.8652148289185 990.5799080421442,440.8503787804584" fill="#1e40af" opacity="0.85"/><polygon points="1119.4706566605753,393.89361159841854 1200,394.09609328899097 1087.2737932083485,452.8652148289185" fill="#3b82f6" opacity="0.85"/><polygon points="1200,394.09609328899097 1194.4916796693055,472.26239043681176 1087.2737932083485,452.8652148289185" fill="#1d4ed8" opacity="0.85"/><polygon points="0,472.7114108686893 125.5906085273912,461.0091481803302 24.06839337242714,521.3018940309692" fill="#1d4ed8" opacity="0.85"/><polygon points="125.5906085273912,461.0091481803302 73.87850912792366,508.0790218209329 24.06839337242714,521.3018940309692" fill="#172554" opacity="0.85"/><polygon points="125.5906085273912,461.0091481803302 189.1978927241179,442.44582176079285 73.87850912792366,508.0790218209329" fill="#1e40af" opacity="0.85"/><polygon points="189.1978927241179,442.44582176079285 174.33039997091274,495.3925869635068 73.87850912792366,508.0790218209329" fill="#172554" opacity="0.85"/><polygon points="189.1978927241179,442.44582176079285 294.84182692767547,428.0346536927987 174.33039997091274,495.3925869635068" fill="#172554" opacity="0.85"/><polygon points="294.84182692767547,428.0346536927987 326.9518660972175,512.0014764222575 174.33039997091274,495.3925869635068" fill="#2563eb" opacity="0.85"/><polygon points="294.84182692767547,428.0346536927987 423.31681534033396,451.68180435043234 326.9518660972175,512.0014764222575" fill="#3b82f6" opacity="0.85"/><polygon points="423.31681534033396,451.68180435043234 407.2527605245277,536.8083402587522 326.9518660972175,512.0014764222575" fill="#1d4ed8" opacity="0.85"/><polygon points="423.31681534033396,451.68180435043234 502.1314941485069,453.0930142059034 407.2527605245277,536.8083402587522" fill="#172554" opacity="0.85"/><polygon points="502.1314941485069,453.0930142059034 503.77751144808923,515.5224401122204 407.2527605245277,536.8083402587522" fill="#1e40af" opacity="0.85"/><polygon points="502.1314941485069,453.0930142059034 602.0803587250734,447.3957863107467 503.77751144808923,515.5224401122204" fill="#3b82f6" opacity="0.85"/><polygon points="602.0803587250734,447.3957863107467 622.3283042656001,529.5659843990995 503.77751144808923,515.5224401122204" fill="#1e3a8a" opacity="0.85"/><polygon points="602.0803587250734,447.3957863107467 678.7447911353833,476.30750208413303 622.3283042656001,529.5659843990995" fill="#172554" opacity="0.85"/><polygon points="678.7447911353833,476.30750208413303 686.6893354343337,542.4123874348339 622.3283042656001,529.5659843990995" fill="#172554" opacity="0.85"/><polygon points="678.7447911353833,476.30750208413303 793.2999322675771,465.8500127753535 686.6893354343337,542.4123874348339" fill="#172554" opacity="0.85"/><polygon points="793.2999322675771,465.8500127753535 796.3291406035286,547.4932510956289 686.6893354343337,542.4123874348339" fill="#172554" opacity="0.85"/><polygon points="793.2999322675771,465.8500127753535 889.6956287959597,422.99285809767184 796.3291406035286,547.4932510956289" fill="#172554" opacity="0.85"/><polygon points="889.6956287959597,422.99285809767184 901.5338183096744,523.4870440516064 796.3291406035286,547.4932510956289" fill="#172554" opacity="0.85"/><polygon points="889.6956287959597,422.99285809767184 990.5799080421442,440.8503787804584 901.5338183096744,523.4870440516064" fill="#3b82f6" opacity="0.85"/><polygon points="990.5799080421442,440.8503787804584 993.1003430054325,543.7239747312123 901.5338183096744,523.4870440516064" fill="#1e3a8a" opacity="0.85"/><polygon points="990.5799080421442,440.8503787804584 1087.2737932083485,452.8652148289185 993.1003430054325,543.7239747312123" fill="#1e40af" opacity="0.85"/><polygon points="1087.2737932083485,452.8652148289185 1125.50856981068,532.3189256628381 993.1003430054325,543.7239747312123" fill="#1e40af" opacity="0.85"/><polygon points="1087.2737932083485,452.8652148289185 1194.4916796693055,472.26239043681176 1125.50856981068,532.3189256628381" fill="#172554" opacity="0.85"/><polygon points="1194.4916796693055,472.26239043681176 1200,499.78298341863757 1125.50856981068,532.3189256628381" fill="#3b82f6" opacity="0.85"/><polygon points="24.06839337242714,521.3018940309692 73.87850912792366,508.0790218209329 2.9815308717681646,591.5006469215439" fill="#2563eb" opacity="0.85"/><polygon points="73.87850912792366,508.0790218209329 122.12109507695932,581.3791740350293 2.9815308717681646,591.5006469215439" fill="#172554" opacity="0.85"/><polygon points="73.87850912792366,508.0790218209329 174.33039997091274,495.3925869635068 122.12109507695932,581.3791740350293" fill="#172554" opacity="0.85"/><polygon points="174.33039997091274,495.3925869635068 198.03378179011088,571.0671926265827 122.12109507695932,581.3791740350293" fill="#3b82f6" opacity="0.85"/><polygon points="174.33039997091274,495.3925869635068 326.9518660972175,512.0014764222575 198.03378179011088,571.0671926265827" fill="#1e40af" opacity="0.85"/><polygon points="326.9518660972175,512.0014764222575 328.6537276585773,594.374284598816 198.03378179011088,571.0671926265827" fill="#172554" opacity="0.85"/><polygon points="326.9518660972175,512.0014764222575 407.2527605245277,536.8083402587522 328.6537276585773,594.374284598816" fill="#2563eb" opacity="0.85"/><polygon points="407.2527605245277,536.8083402587522 389.3036594012857,600 328.6537276585773,594.374284598816" fill="#3b82f6" opacity="0.85"/><polygon points="407.2527605245277,536.8083402587522 503.77751144808923,515.5224401122204 389.3036594012857,600" fill="#172554" opacity="0.85"/><polygon points="503.77751144808923,515.5224401122204 495.5744758431083,600 389.3036594012857,600" fill="#1e40af" opacity="0.85"/><polygon points="503.77751144808923,515.5224401122204 622.3283042656001,529.5659843990995 495.5744758431083,600" fill="#1e40af" opacity="0.85"/><polygon points="622.3283042656001,529.5659843990995 607.366935368331,573.6564269351463 495.5744758431083,600" fill="#3b82f6" opacity="0.85"/><polygon points="622.3283042656001,529.5659843990995 686.6893354343337,542.4123874348339 607.366935368331,573.6564269351463" fill="#1e3a8a" opacity="0.85"/><polygon points="686.6893354343337,542.4123874348339 706.1608954775294,591.4068853361206 607.366935368331,573.6564269351463" fill="#2563eb" opacity="0.85"/><polygon points="686.6893354343337,542.4123874348339 796.3291406035286,547.4932510956289 706.1608954775294,591.4068853361206" fill="#1e3a8a" opacity="0.85"/><polygon points="796.3291406035286,547.4932510956289 805.6014411651856,600 706.1608954775294,591.4068853361206" fill="#2563eb" opacity="0.85"/><polygon points="796.3291406035286,547.4932510956289 901.5338183096744,523.4870440516064 805.6014411651856,600" fill="#1e3a8a" opacity="0.85"/><polygon points="901.5338183096744,523.4870440516064 893.2601456216632,583.0686070337376 805.6014411651856,600" fill="#1e40af" opacity="0.85"/><polygon points="901.5338183096744,523.4870440516064 993.1003430054325,543.7239747312123 893.2601456216632,583.0686070337376" fill="#3b82f6" opacity="0.85"/><polygon points="993.1003430054325,543.7239747312123 1010.8886752442094,586.6227500505502 893.2601456216632,583.0686070337376" fill="#3b82f6" opacity="0.85"/><polygon points="993.1003430054325,543.7239747312123 1125.50856981068,532.3189256628381 1010.8886752442094,586.6227500505502" fill="#2563eb" opacity="0.85"/><polygon points="1125.50856981068,532.3189256628381 1101.60757709822,600 1010.8886752442094,586.6227500505502" fill="#172554" opacity="0.85"/><polygon points="1125.50856981068,532.3189256628381 1200,499.78298341863757 1101.60757709822,600" fill="#172554" opacity="0.85"/><polygon points="1200,499.78298341863757 1200,600 1101.60757709822,600" fill="#1e3a8a" opacity="0.85"/>
  <rect width="1200" height="600" fill="url(#overlay)"/>
</svg>